<?xml version="1.0" encoding="UTF-8"?>
<svg width="97px" height="30px" viewBox="0 0 97 30" version="1.1" xmlns="http://www.w3.org/2000/svg" xmlns:xlink="http://www.w3.org/1999/xlink">
    <!-- Generator: Sketch 44.1 (41455) - http://www.bohemiancoding.com/sketch -->
    <title>Artboard</title>
    <desc>Created with Sketch.</desc>
    <defs></defs>
    <g id="Page-1" stroke="none" stroke-width="1" fill="none" fill-rule="evenodd">
        <g id="Artboard" fill-rule="nonzero" fill="#004890">
            <g id="dgist_blue">
                <path d="M43.1309298,27.5533784 C43.1754215,27.5545946 43.2559876,27.5339189 43.3024835,27.5104054 C43.5998967,27.3604054 43.726157,26.9371622 43.9069298,26.4433784 C44.0400041,26.0801351 45.0420702,22.4931081 45.4625372,21.0705405 L44.6187975,16.472027 C44.2608595,14.9655405 43.6989008,13.1833784 42.6475331,11.8106757 C40.8109463,9.41148649 37.5165537,9.44067568 36.2591612,9.55054054 C37.4772727,10.4051351 38.7118182,11.9497297 39.2405083,14.7535135 C39.2405083,14.7535135 40.2910744,20.9643243 41.1015455,24.6510811 C41.6999793,26.745 42.488405,27.5383784 43.1309298,27.5533784 Z" id="Shape"></path>
                <path d="M29.9553636,17.8739189 L29.9437397,17.8739189 C29.9437397,17.8739189 28.7841488,21.8975676 28.7576942,21.9875676 C28.9665248,21.9875676 32.9202769,21.9875676 32.9202769,21.9875676 C32.9202769,21.9875676 32.3643306,25.5936486 27.6678471,25.5936486 C26.7888347,25.5936486 22.0478595,25.7837838 23.1513347,19.8952703 C23.6042686,17.4827027 24.464843,13.7472973 22.9192562,11.1109459 L22.9208595,11.1089189 C22.9016198,11.0748649 21.7700868,8.14581081 15.5232066,8.13851351 L6.25128926,8.13851351 L5.07326033,12.1840541 L13.6737934,12.1840541 C20.367595,12.1840541 19.0216198,16.7035135 18.748657,18.5245946 C18.2007273,22.1878378 16.1092149,29.6209459 26.5916281,29.7154054 C29.4711653,29.7405405 32.4593264,28.9358108 34.8005537,27.0745946 C37.211124,25.1590541 37.7786942,22.3982432 37.783905,22.3893243 L39.0982149,17.8735135 C39.0986157,17.8739189 30.1910496,17.8739189 29.9553636,17.8739189 Z" id="Shape"></path>
                <path d="M52.0605413,3.02837838 C52.5287066,1.42297297 54.3284174,0.116351351 56.0720124,0.116351351 C57.8180124,0.116351351 58.8561529,1.42297297 58.3875868,3.02837838 C57.920624,4.63378378 56.1221157,5.94040541 54.3761157,5.94040541 C52.6321198,5.94 51.5931777,4.63378378 52.0605413,3.02837838 Z" id="Shape"></path>
                <path d="M8.91598347,25.0447297 C8.14639669,25.0293243 7.2613719,25.0293243 6.60161157,25.0321622 L9.66793388,14.5009459 L4.39706612,14.5009459 L0.148305785,29.0906757 L7.79407025,29.0906757 C10.3429256,29.0906757 11.4163388,29.0006757 12.4023719,28.8535135 C14.2573967,28.5782432 16.1340661,27.9304054 17.8580207,26.8885135 C17.1866364,25.5912162 16.8459339,23.4660811 17.3938636,20.9513514 C17.3938636,20.9517568 16.060314,25.1882432 8.91598347,25.0447297 Z" id="Shape"></path>
                <path d="M33.5575909,7.11364865 C27.6874876,7.11364865 23.8375496,10.3483784 23.8375496,10.3483784 C24.628781,11.5698649 24.8624628,13.1339189 24.882905,14.3586486 C24.901343,15.3141892 24.7470248,16.242973 24.7470248,16.242973 C26.4898182,11.1522973 32.6877975,9.52054054 34.0766612,9.27445946 C41.2085661,8.01243243 43.0475579,11.3602703 43.7073182,12.6677027 C42.0923884,8.43689189 36.9826529,7.11364865 33.5575909,7.11364865 Z" id="Shape"></path>
                <path d="M60.2626529,14.1608108 C60.0979132,13.2259459 59.352376,9.44432432 58.0072025,8.9322973 C57.8111983,8.85648649 57.5915455,8.80459459 57.3787066,8.82081081 C55.7549587,8.94364865 54.8298512,10.9236486 54.6667149,11.3262162 C55.2318802,14.4077027 56.8949091,23.4895946 57.0965248,24.5497297 C57.4219959,25.8936486 57.8777355,26.4186486 58.266938,26.8386486 C59.6004876,28.2754054 61.2995909,28.1104054 61.2995909,28.1104054 C61.2995909,28.1104054 62.2651818,28.067027 63.1630331,27.7933784 C62.798281,27.2055405 62.5277231,26.5122973 62.3645868,25.6747297 C62.3645868,25.6747297 61.0594959,18.4828378 60.2610496,14.147027 L60.2626529,14.1608108 Z" id="Shape"></path>
                <path d="M53.0914669,7.76918919 C50.8424298,8.49364865 49.1842107,10.2397297 48.439876,12.7252703 L44.638438,25.7574324 C44.4247975,26.4802703 44.1390083,27.7747297 43.5133182,28.0431081 C43.4107066,28.0868919 43.2579917,28.1018919 43.1389463,28.0844595 C42.4326901,27.9766216 41.9773512,27.4787838 41.6899587,26.9416216 C41.6899587,26.9416216 42.2294711,29.4859459 45.2661322,29.4859459 C48.5096198,29.457973 49.6924587,26.4660811 50.306124,24.3608108 L54.1059587,11.3290541 C54.5512769,9.80189189 56.2495785,7.74040541 58.0789504,8.43202703 C58.3459008,8.53418919 58.8333058,8.84351351 59.2894463,9.76378378 C59.2894463,9.76378378 58.1871736,6.12810811 53.0914669,7.76918919 Z" id="Shape"></path>
                <path d="M80.7352645,8.10081081 C80.6150165,8.51391892 79.6474215,11.835 79.5275744,12.2468919 C79.8919256,12.2468919 83.9342603,12.2460811 84.8441364,12.2456757 C84.7976405,12.4009459 80.895595,25.7777027 80.895595,25.7777027 C80.8226446,26.0254054 80.1596777,28.8604054 77.9751736,28.3443243 C77.2957727,28.1837838 76.5774917,27.612973 76.345814,27.2185135 C76.345814,27.2185135 76.3550331,27.242027 76.3738719,27.2841892 C77.054876,28.5393243 78.3291033,29.6201351 80.6282438,29.6233784 C83.1442314,29.6233784 85.5383678,27.9016216 86.5628802,24.3818919 L90.101376,12.2468919 C90.101376,12.2468919 95.0555909,12.2468919 95.4632314,12.2468919 C95.5830785,11.835 96.5506736,8.51391892 96.6705207,8.10081081 C96.2107727,8.10081081 81.2246736,8.10081081 80.7352645,8.10081081 Z" id="Shape"></path>
                <path d="M78.4689917,27.855 C78.4689917,27.855 79.5680579,27.9831081 80.2895455,26.0541892 C80.4334421,25.6690541 80.5669174,25.1367568 80.6871653,24.6227027 C80.2931529,22.1890541 79.3540165,16.6163514 78.4533595,12.9612162 C77.3679215,8.98418919 75.1970455,8.52 73.9977727,8.54391892 C72.9784711,8.56418919 72.1018636,8.91932432 71.7026405,9.10945946 C72.4449711,9.79540541 73.0197562,10.9621622 73.4454339,12.915 L75.5958678,24.5732432 C75.914124,25.8454054 76.6953347,27.8387838 78.4689917,27.855 Z" id="Shape"></path>
                <path d="M72.7516033,7.47364865 L72.7576157,7.46756757 C72.110281,7.46391892 71.4974174,7.45783784 70.4348264,7.55351351 C68.6162769,7.71891892 66.0265372,8.55364865 64.4400661,10.1845946 C64.2123967,10.4181081 60.976124,13.5871622 62.7822479,17.0695946 C63.488905,18.4317568 66.3351736,22.0889189 66.3351736,22.0889189 C66.6261736,22.4931081 67.597376,23.6983784 66.8578512,25.3139189 C66.5484132,25.9885135 65.8425579,27.0316216 64.5422769,27.8132432 C64.1186033,28.0540541 60.2061364,29.9282432 57.8408595,27.0875676 C57.8408595,27.0875676 58.8256901,29.8394595 62.6038802,29.8394595 C67.7873678,29.8394595 70.816814,26.9914865 72.0714008,24.7617568 C72.7095165,23.5945946 73.1949174,21.9928378 72.2389463,20.1433784 C71.3418967,18.4098649 69.4343636,15.9206757 68.6776033,14.952973 C67.9905868,14.0736486 67.6226281,13.0731081 68.0747603,11.997973 C68.442719,10.875 69.3858636,9.81243243 70.673719,9.05027027 L70.6705124,9.05351351 C75.8507934,6.22662162 77.6505041,10.2778378 77.6505041,10.2778378 C76.842438,7.64189189 73.6658884,7.46797297 72.7516033,7.47364865 Z" id="Shape"></path>
            </g>
        </g>
    </g>
</svg>